#!OML:ASF H:\Martial Arts Walks\Project 1\Capture day 1\Session 1\male.ASF
:FULLY-SPECIFIED
:DEGREES
1059
root -5.947 13.9391 17.0236 5.99082 21.7501 4.29944
lowerback 13.4803 1.3909 -9.05688
upperback -0.930449 0.43111 0.60589
thorax -8.70006 0.649062 5.70005
lowerneck -0.0049232 -8.27486 -9.84111
upperneck 1.40518 -11.243 11.3038
head 1.62325 -5.59628 4.70235
rclavicle -3.33461e-014 -5.56597e-015
rhumerus -27.6184 20.4119 -61.59
rradius 87.4312
rwrist 2.74903
rhand -20.9003 -39.6614
rfingers 7.12502
rthumb 5.47062 -69.5707
lclavicle -3.33461e-014 -5.56597e-015
lhumerus -18.6503 -33.7091 88.3227
lradius 99.1605
lwrist 30.2036
lhand -7.48173 2.36152
lfingers 7.12502
lthumb 18.4075 31.5106
rfemur -65.5354 -26.0435 20.3198
rtibia 79.4135
rfoot -12.1928 3.67896
rtoes 9.03834
lfemur 6.21451 5.9715 -8.20249
ltibia 42.4622
lfoot -29.9089 33.052
ltoes -24.2233
1060
root -5.95096 13.9342 17.0368 6.36396 22.0579 4.8442
lowerback 13.6385 1.26458 -9.39273
upperback -0.898437 0.187082 0.533487
thorax -8.71777 0.545139 5.86437
lowerneck -0.0822544 -8.22523 -9.72974
upperneck 1.06495 -11.1468 11.3199
head 1.52056 -5.54851 4.699
rclavicle -9.159e-014 -9.93923e-016
rhumerus -27.768 20.2764 -61.1969
rradius 87.336
rwrist 2.6967
rhand -20.9509 -39.6845
rfingers 7.12502
rthumb 5.42172 -69.5951
lclavicle -9.159e-014 -9.93923e-016
lhumerus -16.798 -33.9342 87.9179
lradius 98.8256
lwrist 30.549
lhand -7.53228 2.32762
lfingers 7.12502
lthumb 18.3588 31.4813
rfemur -66.31 -26.8569 20.7831
rtibia 79.8007
rfoot -11.9377 1.36846
rtoes 8.74862
lfemur 6.10384 5.71142 -8.68759
ltibia 42.1852
lfoot -29.624 33.105
ltoes -24.493
1061
root -5.95882 13.9298 17.0628 6.83741 22.1876 5.38837
lowerback 13.6953 1.22932 -9.7337
upperback -0.898813 0.0721938 0.467942
thorax -8.73426 0.504975 6.01142
lowerneck 0.359895 -8.25806 -9.16596
upperneck 0.0285712 -11.1432 10.9711
head 1.09185 -5.569 4.55362
rclavicle 6.60959e-014 1.23246e-014
rhumerus -27.9935 20.0847 -60.7422
rradius 87.2194
rwrist 2.45059
rhand -21.2248 -39.6361
rfingers 7.12502
rthumb 5.1573 -69.5534
lclavicle 6.60959e-014 1.23246e-014
lhumerus -14.8162 -34.2538 87.638
lradius 98.4281
lwrist 30.8791
lhand -7.55304 2.48685
lfingers 7.12502
lthumb 18.3389 31.6424
rfemur -67.1987 -27.4247 21.3284
rtibia 80.1198
rfoot -11.6489 -1.01429
rtoes 9.37479
lfemur 6.01533 5.57112 -9.18642
ltibia 41.8108
lfoot -29.3859 33.1115
ltoes -24.6861
1062
root -5.9671 13.9289 17.0845 7.2799 22.2258 5.68605
lowerback 13.7788 1.1708 -9.8463
upperback -0.995756 -0.0434779 0.417426
thorax -8.86981 0.463729 6.04569
lowerneck 0.285468 -8.06658 -9.47455
upperneck -0.15452 -10.8779 11.493
head 1.07096 -5.43536 4.76924
rclavicle -1.04859e-014 5.96354e-015
rhumerus -28.3139 19.8234 -60.4514
rradius 87.0364
rwrist 2.47321
rhand -21.1639 -39.955
rfingers 7.12502
rthumb 5.21607 -69.8708
lclavicle -1.04859e-014 5.96354e-015
lhumerus -12.9131 -34.5754 87.2899
lradius 98.042
lwrist 31.0324
lhand -7.71521 2.64704
lfingers 7.12502
lthumb 18.1828 31.8172
rfemur -68.0822 -27.764 22.1517
rtibia 80.3328
rfoot -11.3318 -3.508
rtoes 8.99603
lfemur 5.90813 5.49249 -9.46834
ltibia 41.3516
lfoot -29.173 33.0496
ltoes -24.805
1063
root -5.97035 13.931 17.1194 7.75104 22.3705 6.09712
lowerback 13.7511 0.979923 -10.0673
upperback -1.00541 -0.330918 0.422727
thorax -8.81355 0.333646 6.23799
lowerneck 0.135959 -8.11969 -8.92337
upperneck -0.546752 -10.9005 10.9327
head 0.919692 -5.44691 4.51934
rclavicle -2.0276e-014 -2.0276e-014
rhumerus -28.3581 19.7544 -60.0842
rradius 86.7815
rwrist 2.47194
rhand -21.0868 -40.033
rfingers 7.12502
rthumb 5.29056 -69.947
lclavicle -2.0276e-014 -2.0276e-014
lhumerus -10.9884 -34.6512 86.8987
lradius 97.755
lwrist 30.633
lhand -8.28117 2.81295
lfingers 7.12502
lthumb 17.6383 32.0329
rfemur -68.8466 -28.2957 22.8482
rtibia 80.4824
rfoot -11.4168 -5.93634
rtoes 9.01889
lfemur 5.89232 5.28668 -9.87016
ltibia 40.8
lfoot -28.9041 33.0559
ltoes -24.9227
1064
root -5.97037 13.9346 17.1597 8.25934 22.4358 6.72681
lowerback 13.7886 0.808435 -10.4092
upperback -1.09585 -0.6327 0.343118
thorax -8.88029 0.209879 6.40966
lowerneck 0.0142471 -8.00386 -8.76679
upperneck -0.702119 -10.7232 10.7764
head 0.858832 -5.35674 4.45464
rclavicle 8.05078e-015 3.57812e-015
rhumerus -28.6561 19.6773 -59.8467
rradius 86.5393
rwrist 2.29917
rhand -21.2234 -40.0119
rfingers 7.12502
rthumb 5.15861 -69.9292
lclavicle 8.05078e-015 3.57812e-015
lhumerus -9.13969 -34.7585 86.5537
lradius 97.3905
lwrist 29.9725
lhand -8.74194 2.93373
lfingers 7.12502
lthumb 17.1948 32.1929
rfemur -69.5147 -28.7996 23.2253
rtibia 80.5786
rfoot -11.7989 -8.09775
rtoes 10.7574
lfemur 6.02393 5.05174 -10.5492
ltibia 40.1174
lfoot -28.5987 33.1324
ltoes -24.9175
1065
root -5.97279 13.945 17.2008 8.83742 22.4748 7.09713
lowerback 13.7492 0.608244 -10.471
upperback -1.26911 -0.918058 0.313066
thorax -8.99617 0.0879402 6.47223
lowerneck -0.137671 -7.76255 -8.91516
upperneck -0.768076 -10.386 10.9708
head 0.849952 -5.18448 4.54402
rclavicle 3.61291e-014 -7.15625e-015
rhumerus -28.9515 19.4778 -59.603
rradius 86.2562
rwrist 2.42313
rhand -20.713 -40.602
rfingers 7.12502
rthumb 5.65147 -70.5066
lclavicle 3.61291e-014 -7.15625e-015
lhumerus -7.49876 -34.8596 86.2499
lradius 97.1224
lwrist 28.8182
lhand -9.10163 2.93058
lfingers 7.12502
lthumb 16.8486 32.2196
rfemur -70.2644 -29.1179 23.9152
rtibia 80.5242
rfoot -12.1434 -10.2064
rtoes 12.1663
lfemur 6.00939 4.83788 -10.989
ltibia 39.3529
lfoot -28.2581 33.0902
ltoes -24.8657
1066
root -5.97232 13.9536 17.2626 9.28303 22.4027 7.6396
lowerback 13.687 0.406125 -10.7174
upperback -1.36038 -1.23178 0.252801
thorax -9.00082 -0.0485198 6.61034
lowerneck -0.484923 -7.54957 -8.9287
upperneck -0.69997 -10.0789 10.9259
head 0.894106 -5.02092 4.52895
rclavicle 3.79182e-014 2.38542e-014
rhumerus -29.2309 19.4023 -59.4537
rradius 85.8768
rwrist 2.50193
rhand -20.7506 -40.6123
rfingers 7.12502
rthumb 5.61511 -70.5179
lclavicle 3.79182e-014 2.38542e-014
lhumerus -5.75171 -34.8787 85.8415
lradius 96.7762
lwrist 27.4861
lhand -9.48215 2.71456
lfingers 7.12502
lthumb 16.4823 32.0344
rfemur -70.6581 -29.3812 24.2108
rtibia 80.4379
rfoot -12.6717 -12.0669
rtoes 13.0079
lfemur 6.37878 4.62403 -11.6178
ltibia 38.4345
lfoot -27.7824 33.1967
ltoes -24.9077
